<svg width="40" height="41" viewBox="0 0 40 41" fill="none" xmlns="http://www.w3.org/2000/svg">
<g clip-path="url(#clip0)">
<path d="M20.7148 40.4864C23.7737 40.0518 26.4551 36.8593 28.1425 32.1445C25.7033 31.5983 23.2141 31.305 20.7148 31.2701V40.4864Z" fill="#9C9C9C"/>
<path d="M25.6028 39.7365C25.7836 39.6842 25.9637 39.6315 26.1424 39.5735C26.2932 39.525 26.4419 39.4727 26.5906 39.4206C26.7665 39.3599 26.9418 39.2974 27.1163 39.2311C27.265 39.1746 27.4123 39.1145 27.56 39.0545C27.7303 38.9829 27.9003 38.9117 28.0685 38.8402C28.2155 38.7756 28.3614 38.7079 28.5073 38.6398C28.6724 38.562 28.8368 38.4827 28.9998 38.4003C29.1429 38.3274 29.2857 38.253 29.4288 38.1766C29.589 38.0907 29.7482 38.0031 29.9063 37.9131C30.0494 37.8321 30.1873 37.7507 30.3266 37.667C30.4816 37.5717 30.6359 37.4764 30.7891 37.3811C30.9263 37.2938 31.0631 37.2052 31.1982 37.1137C31.349 37.0121 31.4977 36.9064 31.6457 36.8006C31.7787 36.7053 31.911 36.6104 32.0408 36.5147C32.1839 36.4044 32.3305 36.2903 32.474 36.1758C32.6014 36.0742 32.7285 35.9733 32.8538 35.869C32.9966 35.7503 33.1334 35.6274 33.272 35.5046C33.3934 35.3967 33.5156 35.2899 33.6343 35.1792C33.7708 35.0518 33.9038 34.9199 34.0367 34.789C34.1519 34.6752 34.2685 34.5631 34.3813 34.4466C34.4022 34.4249 34.4221 34.4015 34.4438 34.3792C32.8845 33.5739 31.2422 32.9418 29.5454 32.4943C28.663 35.3084 27.0926 37.8586 24.9766 39.9132C25.0345 39.8982 25.0925 39.8859 25.1504 39.8709C25.3033 39.828 25.4534 39.7809 25.6028 39.7365Z" fill="#9C9C9C"/>
<path d="M39.9992 21.2413H31.4277C31.3953 24.5881 30.9097 27.9149 29.9844 31.1315C31.8714 31.6356 33.6924 32.3602 35.4098 33.2905C38.2295 29.892 39.8435 25.6548 39.9992 21.2413Z" fill="#9C9C9C"/>
<path d="M20.7148 19.8115H29.9989C29.9626 16.5831 29.489 13.3745 28.5915 10.2731C26.0063 10.8627 23.366 11.1775 20.7148 11.2124V19.8115Z" fill="#9C9C9C"/>
<path d="M20.7148 0.566528V9.78273C23.2141 9.74748 25.7033 9.45462 28.1425 8.90834C26.4551 4.1936 23.7737 1.00111 20.7148 0.566528Z" fill="#9C9C9C"/>
<path d="M20.7148 29.8404C23.366 29.8756 26.0063 30.1905 28.5915 30.78C29.489 27.6786 29.9626 24.4697 29.9989 21.2413H20.7148V29.8404Z" fill="#9C9C9C"/>
<path d="M35.4098 7.76239C33.6924 8.69263 31.8714 9.41728 29.9844 9.92132C30.9097 13.1379 31.3953 16.4648 31.4277 19.8116H39.9992C39.8432 15.3984 38.2291 11.1612 35.4098 7.76239Z" fill="#9C9C9C"/>
<path d="M34.4454 6.67787C34.4245 6.65657 34.4046 6.63354 34.384 6.61155C34.2709 6.49496 34.1536 6.38256 34.0384 6.26912C33.9058 6.13822 33.7735 6.00593 33.6367 5.87887C33.5183 5.76857 33.3958 5.6642 33.2743 5.55425C33.1358 5.43138 32.9972 5.30746 32.8548 5.18878C32.7312 5.08441 32.6045 4.98458 32.4788 4.8844C32.3357 4.76851 32.1891 4.65332 32.0418 4.54267C31.9127 4.44529 31.7818 4.35104 31.6502 4.25679C31.5008 4.14928 31.3507 4.04212 31.1985 3.93985C31.0648 3.84979 30.929 3.76183 30.7932 3.67561C30.6386 3.57613 30.4843 3.47874 30.3269 3.38449C30.189 3.30177 30.0497 3.22009 29.9101 3.14085C29.7502 3.0494 29.59 2.96074 29.4284 2.87417C29.2853 2.80261 29.1425 2.72477 28.9994 2.65322C28.835 2.57014 28.6692 2.49021 28.4992 2.41167C28.3561 2.3436 28.2109 2.27728 28.0636 2.2127C27.8943 2.13766 27.7232 2.06994 27.5526 1.99838C27.4052 1.93834 27.2586 1.879 27.1099 1.82246C26.9365 1.75613 26.7605 1.694 26.5846 1.63327C26.4359 1.58091 26.2872 1.5289 26.1364 1.48003C25.9577 1.42208 25.779 1.36938 25.5954 1.31632C25.4467 1.27269 25.2973 1.22836 25.1468 1.18856C25.0892 1.17286 25.0306 1.16064 24.9727 1.14563C27.0887 3.20019 28.6587 5.75007 29.5415 8.56453C31.24 8.11704 32.8848 7.48454 34.4454 6.67787Z" fill="#9C9C9C"/>
<path d="M0 19.8116H8.57149C8.60396 16.4648 9.0895 13.1379 10.0145 9.92132C8.12784 9.41763 6.3068 8.69298 4.58943 7.76239C1.76973 11.1608 0.15568 15.3984 0 19.8116Z" fill="#9C9C9C"/>
<path d="M19.285 40.4864V31.2701C16.7858 31.3054 14.2966 31.5983 11.8574 32.1445C13.5444 36.8593 16.2262 40.0518 19.285 40.4864Z" fill="#9C9C9C"/>
<path d="M19.2859 21.2413H10.002C10.0383 24.4697 10.5116 27.6786 11.4094 30.78C13.9945 30.1901 16.6344 29.8753 19.2859 29.8404V21.2413Z" fill="#9C9C9C"/>
<path d="M19.285 0.566528C16.2262 1.00111 13.5444 4.1936 11.8574 8.90834C14.2966 9.45497 16.7858 9.74783 19.285 9.78273V0.566528Z" fill="#9C9C9C"/>
<path d="M19.2859 11.2124C16.6348 11.1775 13.9945 10.8627 11.4094 10.2731C10.5116 13.3745 10.0383 16.5831 10.002 19.8115H19.2859V11.2124Z" fill="#9C9C9C"/>
<path d="M15.0218 1.1449C14.9639 1.15991 14.9059 1.17212 14.848 1.18713C14.6965 1.22762 14.5471 1.27265 14.3963 1.31629C14.2169 1.36864 14.0389 1.42135 13.8587 1.4786C13.7069 1.52782 13.5575 1.58017 13.4081 1.63218C13.2332 1.69397 13.058 1.7554 12.8849 1.82102C12.7355 1.87827 12.5882 1.93761 12.4401 1.99835C12.2702 2.0699 12.0998 2.14146 11.9319 2.21267C11.7846 2.27725 11.6391 2.34496 11.4931 2.41303C11.328 2.49087 11.1636 2.57011 11.0006 2.65248C10.8575 2.72544 10.7144 2.80014 10.5716 2.87623C10.4114 2.9621 10.2526 3.05006 10.0948 3.14012C9.95168 3.22005 9.81101 3.30208 9.67313 3.38586C9.5178 3.4794 9.36421 3.57609 9.21132 3.67174C9.07379 3.7597 8.93731 3.84836 8.80222 3.93981C8.65143 4.04139 8.50273 4.14715 8.35472 4.25292C8.22173 4.34821 8.08944 4.44316 7.95924 4.53915C7.81298 4.6491 7.67335 4.76359 7.52605 4.87774C7.39899 4.97931 7.27089 5.08019 7.14662 5.18526C7.0035 5.30324 6.86772 5.42541 6.72984 5.54758C6.60767 5.65649 6.48445 5.76225 6.36507 5.875C6.22928 6.00171 6.09699 6.1333 5.96435 6.26385C5.84915 6.37764 5.73187 6.49004 5.61877 6.60697C5.59818 6.62862 5.57828 6.65235 5.55664 6.67434C7.11555 7.47997 8.75824 8.11212 10.455 8.55961C11.3375 5.74689 12.9068 3.19841 15.0218 1.1449Z" fill="#9C9C9C"/>
<path d="M5.96162 34.7838C6.09461 34.9147 6.2269 35.047 6.36338 35.1744C6.48206 35.2843 6.60423 35.3887 6.72605 35.4986C6.86463 35.6219 7.00321 35.7454 7.14562 35.8641C7.26919 35.9678 7.3952 36.068 7.52156 36.1685C7.66467 36.2844 7.80744 36.3996 7.95893 36.5109C8.08773 36.6076 8.21863 36.7011 8.34953 36.7971C8.49893 36.9043 8.64972 37.0115 8.80191 37.1144C8.9356 37.2045 9.07138 37.2925 9.20717 37.379C9.3618 37.4782 9.51608 37.5755 9.67351 37.6698C9.81139 37.7529 9.95066 37.8342 10.0903 37.9138C10.2502 38.0052 10.4104 38.0939 10.572 38.1801C10.7148 38.2517 10.8579 38.3295 11.001 38.4011C11.1654 38.4841 11.3312 38.5641 11.5012 38.643C11.6443 38.7103 11.7895 38.7767 11.9368 38.8416C12.1061 38.9166 12.2768 38.9843 12.4478 39.0559C12.5951 39.1159 12.7417 39.1753 12.8904 39.2318C13.0639 39.2985 13.2398 39.3606 13.4158 39.4214C13.5645 39.4734 13.7132 39.5257 13.864 39.5743C14.0427 39.6322 14.2214 39.6853 14.405 39.738C14.5537 39.7816 14.7031 39.8259 14.8532 39.8661C14.9111 39.8818 14.9698 39.894 15.0277 39.909C12.9117 37.8541 11.3417 35.3042 10.4589 32.4897C8.76212 32.9376 7.11944 33.5697 5.56055 34.3757C5.58149 34.397 5.60139 34.42 5.62233 34.442C5.72949 34.5579 5.84503 34.6703 5.96162 34.7838Z" fill="#9C9C9C"/>
<path d="M4.58943 33.2905C6.3068 32.3602 8.12784 31.6356 10.0145 31.1315C9.0895 27.9149 8.60396 24.5881 8.57149 21.2413H0C0.156029 25.6544 1.76973 29.8917 4.58943 33.2905Z" fill="#9C9C9C"/>
</g>
<defs>
<clipPath id="clip0">
<rect y="0.51001" width="40" height="40" fill="white"/>
</clipPath>
</defs>
</svg>
