<svg width="58" height="60" viewBox="0 0 58 60" fill="none" xmlns="http://www.w3.org/2000/svg">
<rect width="57.9795" height="60" rx="28.9897" fill="#EDEDED"/>
<g clip-path="url(#clip0)">
<path d="M41.4353 20.3944C39.8306 18.6539 37.6286 17.6953 35.2347 17.6953C33.4452 17.6953 31.8064 18.261 30.3637 19.3767C29.6357 19.9398 28.9761 20.6288 28.3945 21.4329C27.8132 20.629 27.1533 19.9398 26.4251 19.3767C24.9826 18.261 23.3438 17.6953 21.5544 17.6953C19.1604 17.6953 16.9583 18.6539 15.3535 20.3944C13.768 22.1145 12.8945 24.4645 12.8945 27.0117C12.8945 29.6335 13.8716 32.0333 15.9692 34.5645C17.8457 36.8286 20.5426 39.127 23.6657 41.7885C24.7322 42.6974 25.941 43.7276 27.1961 44.825C27.5277 45.1155 27.9532 45.2754 28.3945 45.2754C28.8356 45.2754 29.2613 45.1155 29.5925 44.8255C30.8476 43.7279 32.0571 42.6972 33.124 41.7878C36.2467 39.1268 38.9436 36.8286 40.8201 34.5642C42.9177 32.0333 43.8945 29.6335 43.8945 27.0115C43.8945 24.4645 43.0211 22.1145 41.4353 20.3944Z" fill="#CC566B"/>
</g>
<defs>
<clipPath id="clip0">
<rect x="12.8945" y="16" width="31" height="31" fill="white"/>
</clipPath>
</defs>
</svg>
