<svg width="58" height="60" viewBox="0 0 58 60" fill="none" xmlns="http://www.w3.org/2000/svg">
<rect width="57.9795" height="60" rx="28.9897" fill="#EDEDED"/>
<g clip-path="url(#clip0)">
<path d="M37.0411 21.3333C37.0411 23.2778 35.4764 24.8542 33.546 24.8542C31.6155 24.8542 30.0508 23.2778 30.0508 21.3333C30.0508 19.3889 31.6155 17.8125 33.546 17.8125C35.4764 17.8125 37.0411 19.3889 37.0411 21.3333Z" fill="#CC566B"/>
<path d="M33.5459 25.6667C31.1734 25.6667 29.2441 23.7232 29.2441 21.3333C29.2441 18.9436 31.1734 17 33.5459 17C35.9184 17 37.8477 18.9436 37.8477 21.3333C37.8477 23.7232 35.9184 25.6667 33.5459 25.6667ZM33.5459 18.625C32.0629 18.625 30.8573 19.8406 30.8573 21.3333C30.8573 22.8262 32.0629 24.0417 33.5459 24.0417C35.0289 24.0417 36.2345 22.8262 36.2345 21.3333C36.2345 19.8406 35.0289 18.625 33.5459 18.625Z" fill="#CC566B"/>
<path d="M37.0411 38.6667C37.0411 40.6111 35.4764 42.1875 33.546 42.1875C31.6155 42.1875 30.0508 40.6111 30.0508 38.6667C30.0508 36.7222 31.6155 35.1458 33.546 35.1458C35.4764 35.1458 37.0411 36.7222 37.0411 38.6667Z" fill="#CC566B"/>
<path d="M33.5459 43C31.1734 43 29.2441 41.0564 29.2441 38.6667C29.2441 36.2768 31.1734 34.3333 33.5459 34.3333C35.9184 34.3333 37.8477 36.2768 37.8477 38.6667C37.8477 41.0564 35.9184 43 33.5459 43ZM33.5459 35.9583C32.0629 35.9583 30.8573 37.1738 30.8573 38.6667C30.8573 40.1594 32.0629 41.375 33.5459 41.375C35.0289 41.375 36.2345 40.1594 36.2345 38.6667C36.2345 37.1738 35.0289 35.9583 33.5459 35.9583Z" fill="#CC566B"/>
<path d="M21.9847 30C21.9847 31.9446 20.4198 33.5208 18.4893 33.5208C16.5591 33.5208 14.9941 31.9446 14.9941 30C14.9941 28.0555 16.5591 26.4792 18.4893 26.4792C20.4198 26.4792 21.9847 28.0555 21.9847 30Z" fill="#CC566B"/>
<path d="M18.4893 34.3333C16.1169 34.3333 14.1875 32.3899 14.1875 30C14.1875 27.6101 16.1169 25.6667 18.4893 25.6667C20.8618 25.6667 22.7913 27.6101 22.7913 30C22.7913 32.3899 20.8618 34.3333 18.4893 34.3333ZM18.4893 27.2917C17.0063 27.2917 15.8007 28.5071 15.8007 30C15.8007 31.4929 17.0063 32.7083 18.4893 32.7083C19.9725 32.7083 21.1781 31.4929 21.1781 30C21.1781 28.5071 19.9725 27.2917 18.4893 27.2917Z" fill="#CC566B"/>
<path d="M21.0277 29.4801C20.6534 29.4801 20.2898 29.2839 20.0919 28.933C19.7983 28.414 19.9791 27.7521 20.4942 27.4552L30.4733 21.7244C30.9885 21.4265 31.6456 21.6086 31.9404 22.1295C32.234 22.6484 32.0532 23.3103 31.5381 23.6073L21.5588 29.338C21.391 29.4344 21.2083 29.4801 21.0277 29.4801Z" fill="#CC566B"/>
<path d="M31.0066 38.4176C30.8258 38.4176 30.6431 38.372 30.4753 38.2756L20.496 32.5448C19.9809 32.2491 19.8003 31.5871 20.0939 31.067C20.3864 30.5471 21.0445 30.364 21.5608 30.6619L31.5401 36.3927C32.0552 36.6884 32.2358 37.3504 31.9422 37.8705C31.7433 38.2214 31.3798 38.4176 31.0066 38.4176Z" fill="#CC566B"/>
</g>
<defs>
<clipPath id="clip0">
<rect x="10.916" y="17" width="28.0234" height="26" fill="white"/>
</clipPath>
</defs>
</svg>
