<svg width="59" height="60" viewBox="0 0 59 60" fill="none" xmlns="http://www.w3.org/2000/svg">
<rect x="0.105469" width="57.9795" height="60" rx="28.9897" fill="#CC566B"/>
<g clip-path="url(#clip0)">
<path d="M41.5408 20.3944C39.936 18.6539 37.7341 17.6953 35.3401 17.6953C33.5507 17.6953 31.9119 18.261 30.4692 19.3767C29.7412 19.9398 29.0816 20.6288 28.5 21.4329C27.9187 20.629 27.2588 19.9398 26.5306 19.3767C25.0881 18.261 23.4493 17.6953 21.6599 17.6953C19.2659 17.6953 17.0637 18.6539 15.459 20.3944C13.8734 22.1145 13 24.4645 13 27.0117C13 29.6335 13.977 32.0333 16.0746 34.5645C17.9511 36.8286 20.6481 39.127 23.7712 41.7885C24.8376 42.6974 26.0464 43.7276 27.3016 44.825C27.6332 45.1155 28.0587 45.2754 28.5 45.2754C28.9411 45.2754 29.3668 45.1155 29.6979 44.8255C30.9531 43.7279 32.1626 42.6972 33.2295 41.7878C36.3522 39.1268 39.0491 36.8286 40.9256 34.5642C43.0232 32.0333 44 29.6335 44 27.0115C44 24.4645 43.1266 22.1145 41.5408 20.3944Z" fill="white"/>
</g>
<defs>
<clipPath id="clip0">
<rect x="13" y="16" width="31" height="31" fill="white"/>
</clipPath>
</defs>
</svg>
