<svg width="21" height="21" viewBox="0 0 21 21" fill="none" xmlns="http://www.w3.org/2000/svg">
<g clip-path="url(#clip0)">
<path d="M20.2068 18.791L14.5194 13.1036C15.621 11.7428 16.2843 10.0136 16.2843 8.13029C16.2843 3.76533 12.7327 0.213684 8.36773 0.213684C4.00278 0.213684 0.451172 3.76529 0.451172 8.13025C0.451172 12.4952 4.00282 16.0469 8.36777 16.0469C10.2511 16.0469 11.9802 15.3835 13.341 14.2819L19.0285 19.9693C19.191 20.1318 19.4043 20.2135 19.6177 20.2135C19.831 20.2135 20.0443 20.1318 20.2068 19.9693C20.5327 19.6435 20.5327 19.1168 20.2068 18.791ZM8.36777 14.3802C4.92113 14.3802 2.11784 11.5769 2.11784 8.13025C2.11784 4.6836 4.92113 1.88031 8.36777 1.88031C11.8144 1.88031 14.6177 4.6836 14.6177 8.13025C14.6177 11.5769 11.8144 14.3802 8.36777 14.3802Z" fill="#A5A5A5"/>
</g>
<defs>
<clipPath id="clip0">
<rect x="0.451172" y="0.212769" width="20" height="20" fill="white"/>
</clipPath>
</defs>
</svg>
