<svg width="59" height="60" viewBox="0 0 59 60" fill="none" xmlns="http://www.w3.org/2000/svg">
<rect x="0.0839844" width="57.9795" height="60" rx="28.9897" fill="#CC566B"/>
<g clip-path="url(#clip0)">
<path d="M37.1251 21.3333C37.1251 23.2778 35.5604 24.8542 33.6299 24.8542C31.6995 24.8542 30.1348 23.2778 30.1348 21.3333C30.1348 19.3889 31.6995 17.8125 33.6299 17.8125C35.5604 17.8125 37.1251 19.3889 37.1251 21.3333Z" fill="white"/>
<path d="M33.6299 25.6667C31.2574 25.6667 29.3281 23.7232 29.3281 21.3333C29.3281 18.9436 31.2574 17 33.6299 17C36.0024 17 37.9317 18.9436 37.9317 21.3333C37.9317 23.7232 36.0024 25.6667 33.6299 25.6667ZM33.6299 18.625C32.1469 18.625 30.9413 19.8406 30.9413 21.3333C30.9413 22.8262 32.1469 24.0417 33.6299 24.0417C35.1129 24.0417 36.3185 22.8262 36.3185 21.3333C36.3185 19.8406 35.1129 18.625 33.6299 18.625Z" fill="white"/>
<path d="M37.1251 38.6667C37.1251 40.6111 35.5604 42.1875 33.6299 42.1875C31.6995 42.1875 30.1348 40.6111 30.1348 38.6667C30.1348 36.7222 31.6995 35.1458 33.6299 35.1458C35.5604 35.1458 37.1251 36.7222 37.1251 38.6667Z" fill="white"/>
<path d="M33.6299 43C31.2574 43 29.3281 41.0564 29.3281 38.6667C29.3281 36.2768 31.2574 34.3333 33.6299 34.3333C36.0024 34.3333 37.9317 36.2768 37.9317 38.6667C37.9317 41.0564 36.0024 43 33.6299 43ZM33.6299 35.9583C32.1469 35.9583 30.9413 37.1738 30.9413 38.6667C30.9413 40.1594 32.1469 41.375 33.6299 41.375C35.1129 41.375 36.3185 40.1594 36.3185 38.6667C36.3185 37.1738 35.1129 35.9583 33.6299 35.9583Z" fill="white"/>
<path d="M22.0687 30C22.0687 31.9446 20.5037 33.5208 18.5733 33.5208C16.6431 33.5208 15.0781 31.9446 15.0781 30C15.0781 28.0555 16.6431 26.4792 18.5733 26.4792C20.5037 26.4792 22.0687 28.0555 22.0687 30Z" fill="white"/>
<path d="M18.5733 34.3333C16.2009 34.3333 14.2715 32.3899 14.2715 30C14.2715 27.6101 16.2009 25.6667 18.5733 25.6667C20.9458 25.6667 22.8752 27.6101 22.8752 30C22.8752 32.3899 20.9458 34.3333 18.5733 34.3333ZM18.5733 27.2917C17.0902 27.2917 15.8847 28.5071 15.8847 30C15.8847 31.4929 17.0902 32.7083 18.5733 32.7083C20.0565 32.7083 21.262 31.4929 21.262 30C21.262 28.5071 20.0565 27.2917 18.5733 27.2917Z" fill="white"/>
<path d="M21.1117 29.4801C20.7373 29.4801 20.3738 29.2839 20.1759 28.933C19.8823 28.414 20.0631 27.7521 20.5782 27.4552L30.5573 21.7244C31.0724 21.4265 31.7296 21.6086 32.0244 22.1295C32.318 22.6484 32.1372 23.3103 31.6221 23.6073L21.6428 29.338C21.475 29.4344 21.2923 29.4801 21.1117 29.4801Z" fill="white"/>
<path d="M31.0906 38.4176C30.9098 38.4176 30.7271 38.372 30.5593 38.2756L20.58 32.5448C20.0649 32.2491 19.8843 31.5871 20.1779 31.067C20.4703 30.5471 21.1285 30.364 21.6448 30.6619L31.624 36.3927C32.1392 36.6884 32.3198 37.3504 32.0262 37.8705C31.8273 38.2214 31.4638 38.4176 31.0906 38.4176Z" fill="white"/>
</g>
<defs>
<clipPath id="clip0">
<rect x="11" y="17" width="28.0234" height="26" fill="white"/>
</clipPath>
</defs>
</svg>
