<svg width="30" height="16" viewBox="0 0 30 16" fill="none" xmlns="http://www.w3.org/2000/svg">
<path d="M29.6575 13.8321C29.5796 13.7106 29.0974 12.7352 26.7773 10.7303C24.3483 8.63087 24.6746 8.97177 27.6002 5.34169C29.382 3.1309 30.0944 1.7808 29.8714 1.20363C29.6594 0.653461 28.3488 0.798597 28.3488 0.798597L23.9913 0.822224C23.9913 0.822224 23.6686 0.781721 23.4275 0.915043C23.1937 1.04668 23.0432 1.35045 23.0432 1.35045C23.0432 1.35045 22.3526 3.0617 21.4318 4.51644C19.4905 7.58623 18.7129 7.74824 18.3957 7.55754C17.6579 7.11369 17.8428 5.77203 17.8428 4.82021C17.8428 1.84493 18.3268 0.60452 16.8984 0.283871C16.4235 0.177551 16.0755 0.106671 14.8628 0.0948573C13.3076 0.0796687 11.9898 0.0999202 11.2448 0.439133C10.7481 0.665275 10.3657 1.16988 10.5995 1.19856C10.8877 1.234 11.5403 1.36226 11.8865 1.80105C12.3342 2.3664 12.3179 3.63887 12.3179 3.63887C12.3179 3.63887 12.5753 7.14069 11.7179 7.5761C11.1288 7.87481 10.3222 7.26558 8.59111 4.47931C7.70473 3.05326 7.03406 1.47534 7.03406 1.47534C7.03406 1.47534 6.90536 1.18169 6.67516 1.02474C6.39601 0.834037 6.00448 0.773283 6.00448 0.773283L1.8608 0.79691C1.8608 0.79691 1.23907 0.813786 1.01068 1.06524C0.807662 1.2897 0.994364 1.75211 0.994364 1.75211C0.994364 1.75211 4.23898 8.81819 7.91138 12.3808C11.2811 15.6463 15.1057 15.432 15.1057 15.432H16.8386C16.8386 15.432 17.3625 15.378 17.6289 15.1097C17.8754 14.8633 17.8664 14.4009 17.8664 14.4009C17.8664 14.4009 17.8319 12.2356 18.9123 11.9167C19.9763 11.6028 21.343 14.0093 22.7913 14.9358C23.8861 15.6362 24.7181 15.4826 24.7181 15.4826L28.5917 15.432C28.5917 15.432 30.6182 15.3156 29.6575 13.8321Z" fill="#4A76A8"/>
</svg>
